<svg xmlns="http://www.w3.org/2000/svg" viewBox="0 0 64 64" fill="none" role="img" aria-labelledby="title desc">
  <title id="title">i18n-sharpen icon</title>
  <desc id="desc">A dark rounded square with a vector 18 monogram and a sharp amber slash.</desc>
  <defs>
    <linearGradient id="bg" x1="10" y1="4" x2="54" y2="60" gradientUnits="userSpaceOnUse">
      <stop stop-color="#1E293B"/>
      <stop offset="0.52" stop-color="#0F172A"/>
      <stop offset="1" stop-color="#020617"/>
    </linearGradient>
    <linearGradient id="blade" x1="43" y1="53" x2="58" y2="10" gradientUnits="userSpaceOnUse">
      <stop stop-color="#D97706"/>
      <stop offset="0.55" stop-color="#F59E0B"/>
      <stop offset="1" stop-color="#FDE68A"/>
    </linearGradient>
    <linearGradient id="eight" x1="28" y1="17" x2="48" y2="49" gradientUnits="userSpaceOnUse">
      <stop stop-color="#FDE68A"/>
      <stop offset="1" stop-color="#F59E0B"/>
    </linearGradient>
    <filter id="shadow" x="4" y="4" width="56" height="56" color-interpolation-filters="sRGB" filterUnits="userSpaceOnUse">
      <feDropShadow dx="0" dy="3" stdDeviation="3" flood-color="#020617" flood-opacity="0.34"/>
    </filter>
  </defs>

  <rect width="64" height="64" rx="14" fill="url(#bg)"/>
  <rect x="0.5" y="0.5" width="63" height="63" rx="13.5" stroke="#FFFFFF" stroke-opacity="0.1"/>
  <path d="M12 51L52 11" stroke="#38BDF8" stroke-opacity="0.14" stroke-width="2" stroke-linecap="round"/>

  <g filter="url(#shadow)">
    <path fill="#F8FAFC" d="M17.5 46.5V24.9l-5.2 3.4-2.5-4.4 8.9-5.9h5v28.5h-6.2Z"/>
    <path
      fill="url(#eight)"
      fill-rule="evenodd"
      d="M36.4 17.5c-5.7 0-9.5 3.2-9.5 8.1 0 2.6 1.2 4.7 3.5 6-2.8 1.4-4.3 3.8-4.3 6.8 0 5.3 4.2 8.7 10.5 8.7s10.6-3.5 10.6-8.8c0-3.1-1.6-5.5-4.4-6.9 2.2-1.3 3.4-3.4 3.4-6 0-4.8-3.9-7.9-9.8-7.9Zm.1 5.2c2.4 0 3.9 1.3 3.9 3.3s-1.6 3.3-3.9 3.3c-2.3 0-3.8-1.3-3.8-3.3s1.5-3.3 3.8-3.3Zm.1 11.3c2.8 0 4.5 1.5 4.5 3.9s-1.7 3.9-4.5 3.9-4.5-1.5-4.5-3.9 1.7-3.9 4.5-3.9Z"
    />
    <path d="M42.5 53H50l8.3-42H53l-10.5 42Z" fill="url(#blade)"/>
    <path d="M50.2 51.2 57.9 12" stroke="#FFF7ED" stroke-opacity="0.62" stroke-width="1.2" stroke-linecap="round"/>
  </g>
</svg>
