<svg xmlns="http://www.w3.org/2000/svg" viewBox="0 0 64 64" fill="none" role="img" aria-labelledby="title desc">
  <title id="title">i18n-sharpen icon</title>
  <desc id="desc">A black rounded square with an 18 monogram and a sharp amber slash.</desc>
  <defs>
    <linearGradient id="blade" x1="42" y1="53" x2="58" y2="12" gradientUnits="userSpaceOnUse">
      <stop stop-color="#B45309"/>
      <stop offset="0.5" stop-color="#D97706"/>
      <stop offset="1" stop-color="#F59E0B"/>
    </linearGradient>
  </defs>
  <rect width="64" height="64" rx="14" fill="#000000"/>
  <rect x="0.5" y="0.5" width="63" height="63" rx="13.5" stroke="#333333"/>
  <path d="M12 51L52 11" stroke="#F59E0B" stroke-opacity="0.28" stroke-width="2" stroke-linecap="round"/>
  <path fill="#F5F5F7" d="M17.5 46.5V24.9l-5.2 3.4-2.5-4.4 8.9-5.9h5v28.5h-6.2Z"/>
  <path
    fill="#F5F5F7"
    fill-rule="evenodd"
    d="M36.4 17.5c-5.7 0-9.5 3.2-9.5 8.1 0 2.6 1.2 4.7 3.5 6-2.8 1.4-4.3 3.8-4.3 6.8 0 5.3 4.2 8.7 10.5 8.7s10.6-3.5 10.6-8.8c0-3.1-1.6-5.5-4.4-6.9 2.2-1.3 3.4-3.4 3.4-6 0-4.8-3.9-7.9-9.8-7.9Zm.1 5.2c2.4 0 3.9 1.3 3.9 3.3s-1.6 3.3-3.9 3.3c-2.3 0-3.8-1.3-3.8-3.3s1.5-3.3 3.8-3.3Zm.1 11.3c2.8 0 4.5 1.5 4.5 3.9s-1.7 3.9-4.5 3.9-4.5-1.5-4.5-3.9 1.7-3.9 4.5-3.9Z"
  />
  <path d="M42.5 53H50l8.3-42H53l-10.5 42Z" fill="url(#blade)"/>
  <path d="M50.2 51.2 57.9 12" stroke="#FDE68A" stroke-width="1.2" stroke-linecap="round"/>
</svg>
