<svg xmlns="http://www.w3.org/2000/svg" viewBox="0 0 1200 630" width="1200" height="630" role="img" aria-label="i18n-sharpen">
<defs>
 <linearGradient id="steel" x1="0" y1="0" x2="1" y2="0"><stop offset="0" stop-color="#8FB4CE"/><stop offset="0.42" stop-color="#E3EFF7"/><stop offset="0.5" stop-color="#FBFEFF"/><stop offset="0.58" stop-color="#DCEAF4"/><stop offset="1" stop-color="#9CC0D8"/></linearGradient>
 <linearGradient id="goldG" x1="0" y1="0" x2="0" y2="1"><stop offset="0" stop-color="#F8D784"/><stop offset="0.5" stop-color="#E7B23F"/><stop offset="1" stop-color="#C98A1E"/></linearGradient>
 <linearGradient id="gripD" x1="0" y1="0" x2="1" y2="0"><stop offset="0" stop-color="#5C6776"/><stop offset="0.5" stop-color="#444E5C"/><stop offset="1" stop-color="#39414D"/></linearGradient></defs>
<rect width="1200" height="630" fill="#141A24"/>
<g fill="#8FB4CE" opacity="0.055"><circle cx="30" cy="30" r="1"/><circle cx="30" cy="90" r="1"/><circle cx="30" cy="150" r="1"/><circle cx="30" cy="210" r="1"/><circle cx="30" cy="270" r="1"/><circle cx="30" cy="330" r="1"/><circle cx="30" cy="390" r="1"/><circle cx="30" cy="450" r="1"/><circle cx="30" cy="510" r="1"/><circle cx="30" cy="570" r="1"/><circle cx="90" cy="30" r="1"/><circle cx="90" cy="90" r="1"/><circle cx="90" cy="150" r="1"/><circle cx="90" cy="210" r="1"/><circle cx="90" cy="270" r="1"/><circle cx="90" cy="330" r="1"/><circle cx="90" cy="390" r="1"/><circle cx="90" cy="450" r="1"/><circle cx="90" cy="510" r="1"/><circle cx="90" cy="570" r="1"/><circle cx="150" cy="30" r="1"/><circle cx="150" cy="90" r="1"/><circle cx="150" cy="150" r="1"/><circle cx="150" cy="210" r="1"/><circle cx="150" cy="270" r="1"/><circle cx="150" cy="330" r="1"/><circle cx="150" cy="390" r="1"/><circle cx="150" cy="450" r="1"/><circle cx="150" cy="510" r="1"/><circle cx="150" cy="570" r="1"/><circle cx="210" cy="30" r="1"/><circle cx="210" cy="90" r="1"/><circle cx="210" cy="150" r="1"/><circle cx="210" cy="210" r="1"/><circle cx="210" cy="270" r="1"/><circle cx="210" cy="330" r="1"/><circle cx="210" cy="390" r="1"/><circle cx="210" cy="450" r="1"/><circle cx="210" cy="510" r="1"/><circle cx="210" cy="570" r="1"/><circle cx="270" cy="30" r="1"/><circle cx="270" cy="90" r="1"/><circle cx="270" cy="150" r="1"/><circle cx="270" cy="210" r="1"/><circle cx="270" cy="270" r="1"/><circle cx="270" cy="330" r="1"/><circle cx="270" cy="390" r="1"/><circle cx="270" cy="450" r="1"/><circle cx="270" cy="510" r="1"/><circle cx="270" cy="570" r="1"/><circle cx="330" cy="30" r="1"/><circle cx="330" cy="90" r="1"/><circle cx="330" cy="150" r="1"/><circle cx="330" cy="210" r="1"/><circle cx="330" cy="270" r="1"/><circle cx="330" cy="330" r="1"/><circle cx="330" cy="390" r="1"/><circle cx="330" cy="450" r="1"/><circle cx="330" cy="510" r="1"/><circle cx="330" cy="570" r="1"/><circle cx="390" cy="30" r="1"/><circle cx="390" cy="90" r="1"/><circle cx="390" cy="150" r="1"/><circle cx="390" cy="210" r="1"/><circle cx="390" cy="270" r="1"/><circle cx="390" cy="330" r="1"/><circle cx="390" cy="390" r="1"/><circle cx="390" cy="450" r="1"/><circle cx="390" cy="510" r="1"/><circle cx="390" cy="570" r="1"/><circle cx="450" cy="30" r="1"/><circle cx="450" cy="90" r="1"/><circle cx="450" cy="150" r="1"/><circle cx="450" cy="210" r="1"/><circle cx="450" cy="270" r="1"/><circle cx="450" cy="330" r="1"/><circle cx="450" cy="390" r="1"/><circle cx="450" cy="450" r="1"/><circle cx="450" cy="510" r="1"/><circle cx="450" cy="570" r="1"/><circle cx="510" cy="30" r="1"/><circle cx="510" cy="90" r="1"/><circle cx="510" cy="150" r="1"/><circle cx="510" cy="210" r="1"/><circle cx="510" cy="270" r="1"/><circle cx="510" cy="330" r="1"/><circle cx="510" cy="390" r="1"/><circle cx="510" cy="450" r="1"/><circle cx="510" cy="510" r="1"/><circle cx="510" cy="570" r="1"/><circle cx="570" cy="30" r="1"/><circle cx="570" cy="90" r="1"/><circle cx="570" cy="150" r="1"/><circle cx="570" cy="210" r="1"/><circle cx="570" cy="270" r="1"/><circle cx="570" cy="330" r="1"/><circle cx="570" cy="390" r="1"/><circle cx="570" cy="450" r="1"/><circle cx="570" cy="510" r="1"/><circle cx="570" cy="570" r="1"/><circle cx="630" cy="30" r="1"/><circle cx="630" cy="90" r="1"/><circle cx="630" cy="150" r="1"/><circle cx="630" cy="210" r="1"/><circle cx="630" cy="270" r="1"/><circle cx="630" cy="330" r="1"/><circle cx="630" cy="390" r="1"/><circle cx="630" cy="450" r="1"/><circle cx="630" cy="510" r="1"/><circle cx="630" cy="570" r="1"/><circle cx="690" cy="30" r="1"/><circle cx="690" cy="90" r="1"/><circle cx="690" cy="150" r="1"/><circle cx="690" cy="210" r="1"/><circle cx="690" cy="270" r="1"/><circle cx="690" cy="330" r="1"/><circle cx="690" cy="390" r="1"/><circle cx="690" cy="450" r="1"/><circle cx="690" cy="510" r="1"/><circle cx="690" cy="570" r="1"/><circle cx="750" cy="30" r="1"/><circle cx="750" cy="90" r="1"/><circle cx="750" cy="150" r="1"/><circle cx="750" cy="210" r="1"/><circle cx="750" cy="270" r="1"/><circle cx="750" cy="330" r="1"/><circle cx="750" cy="390" r="1"/><circle cx="750" cy="450" r="1"/><circle cx="750" cy="510" r="1"/><circle cx="750" cy="570" r="1"/><circle cx="810" cy="30" r="1"/><circle cx="810" cy="90" r="1"/><circle cx="810" cy="150" r="1"/><circle cx="810" cy="210" r="1"/><circle cx="810" cy="270" r="1"/><circle cx="810" cy="330" r="1"/><circle cx="810" cy="390" r="1"/><circle cx="810" cy="450" r="1"/><circle cx="810" cy="510" r="1"/><circle cx="810" cy="570" r="1"/><circle cx="870" cy="30" r="1"/><circle cx="870" cy="90" r="1"/><circle cx="870" cy="150" r="1"/><circle cx="870" cy="210" r="1"/><circle cx="870" cy="270" r="1"/><circle cx="870" cy="330" r="1"/><circle cx="870" cy="390" r="1"/><circle cx="870" cy="450" r="1"/><circle cx="870" cy="510" r="1"/><circle cx="870" cy="570" r="1"/><circle cx="930" cy="30" r="1"/><circle cx="930" cy="90" r="1"/><circle cx="930" cy="150" r="1"/><circle cx="930" cy="210" r="1"/><circle cx="930" cy="270" r="1"/><circle cx="930" cy="330" r="1"/><circle cx="930" cy="390" r="1"/><circle cx="930" cy="450" r="1"/><circle cx="930" cy="510" r="1"/><circle cx="930" cy="570" r="1"/><circle cx="990" cy="30" r="1"/><circle cx="990" cy="90" r="1"/><circle cx="990" cy="150" r="1"/><circle cx="990" cy="210" r="1"/><circle cx="990" cy="270" r="1"/><circle cx="990" cy="330" r="1"/><circle cx="990" cy="390" r="1"/><circle cx="990" cy="450" r="1"/><circle cx="990" cy="510" r="1"/><circle cx="990" cy="570" r="1"/><circle cx="1050" cy="30" r="1"/><circle cx="1050" cy="90" r="1"/><circle cx="1050" cy="150" r="1"/><circle cx="1050" cy="210" r="1"/><circle cx="1050" cy="270" r="1"/><circle cx="1050" cy="330" r="1"/><circle cx="1050" cy="390" r="1"/><circle cx="1050" cy="450" r="1"/><circle cx="1050" cy="510" r="1"/><circle cx="1050" cy="570" r="1"/><circle cx="1110" cy="30" r="1"/><circle cx="1110" cy="90" r="1"/><circle cx="1110" cy="150" r="1"/><circle cx="1110" cy="210" r="1"/><circle cx="1110" cy="270" r="1"/><circle cx="1110" cy="330" r="1"/><circle cx="1110" cy="390" r="1"/><circle cx="1110" cy="450" r="1"/><circle cx="1110" cy="510" r="1"/><circle cx="1110" cy="570" r="1"/><circle cx="1170" cy="30" r="1"/><circle cx="1170" cy="90" r="1"/><circle cx="1170" cy="150" r="1"/><circle cx="1170" cy="210" r="1"/><circle cx="1170" cy="270" r="1"/><circle cx="1170" cy="330" r="1"/><circle cx="1170" cy="390" r="1"/><circle cx="1170" cy="450" r="1"/><circle cx="1170" cy="510" r="1"/><circle cx="1170" cy="570" r="1"/></g>
<g transform="translate(205.34,329.22) scale(1.33534)">
  <g>
  <rect x="4" y="-22" width="10" height="20" rx="2.5" fill="url(#gripD)"/>
  <path d="M5,-6 L13,-12 M5,-12 L13,-18" stroke="url(#goldG)" stroke-width="1.4" opacity="0.95"/>
  <rect x="-1.5" y="-32" width="21" height="9.5" rx="3" fill="url(#goldG)"/>
  <circle cx="9" cy="-27.2" r="1.7" fill="#5A3E12" opacity="0.6"/>
  <path d="M4,-31 L14,-31 L14,-86 L8,-100 L4,-80 Z" fill="url(#steel)"/>
  <path d="M5,-34 L5,-78" stroke="#FFFFFF" stroke-width="1.4" opacity="0.6"/>
  <path d="M12.4,-34 L12.4,-85" stroke="#1B2330" stroke-width="1" opacity="0.18"/>
  <polygon points="9,-118 15,-111 9,-104 3,-111" fill="url(#goldG)"/>
</g>
  <path d="M155.0 0V604L53.0 529V637L155.0 712H257.0V0Z M608.0 566Q608.0 587 593.0 601.5Q578.0 616 558.0 616Q538.0 616 523.0 601.5Q508.0 587 508.0 566V462Q508.0 441 523.0 426.5Q538.0 412 558.0 412Q578.0 412 593.0 426.5Q608.0 441 608.0 462ZM406.0 526Q406.0 555 408.0 575.5Q410.0 596 415.0 611Q420.0 626 426.5 638.0Q433.0 650 443.0 663Q463.0 689 493.0 703.5Q523.0 718 558.0 718Q593.0 718 623.0 703.5Q653.0 689 673.0 663Q683.0 650 690.0 638.0Q697.0 626 702.0 611Q707.0 596 708.5 575.5Q710.0 555 710.0 526Q710.0 494 709.0 472.0Q708.0 450 703.0 433Q698.0 416 687.5 402.5Q677.0 389 659.0 374Q677.0 360 687.5 346.0Q698.0 332 703.0 313Q708.0 294 709.0 266.5Q710.0 239 710.0 199Q710.0 166 708.5 144.5Q707.0 123 704.0 107Q701.0 91 695.5 80.0Q690.0 69 682.0 57Q665.0 31 634.0 12.5Q603.0 -6 558.0 -6Q513.0 -6 482.0 12.5Q451.0 31 434.0 57Q426.0 69 420.5 80.0Q415.0 91 412.0 107Q409.0 123 407.5 144.5Q406.0 166 406.0 199Q406.0 239 407.0 266.5Q408.0 294 413.0 313Q418.0 332 428.5 346.0Q439.0 360 457.0 374Q439.0 389 428.5 402.5Q418.0 416 413.0 433Q408.0 450 407.0 472.0Q406.0 494 406.0 526ZM608.0 286Q608.0 307 593.0 321.5Q578.0 336 558.0 336Q538.0 336 523.0 321.5Q508.0 307 508.0 286V146Q508.0 125 523.0 110.5Q538.0 96 558.0 96Q578.0 96 593.0 110.5Q608.0 125 608.0 146Z M786.0 0V507H888.0V458H890.0Q906.0 482 928.5 497.5Q951.0 513 986.0 513Q1005.0 513 1024.0 506.5Q1043.0 500 1058.0 485Q1073.0 470 1082.0 446.5Q1091.0 423 1091.0 389V0H989.0V351Q989.0 379 976.0 395.0Q963.0 411 939.0 411Q910.0 411 899.0 393.0Q888.0 375 888.0 341V0Z M1177.0 226V328H1478.0V226Z M1749.0 365Q1748.0 391 1732.5 404.0Q1717.0 417 1697.0 417Q1673.0 417 1660.0 401.5Q1647.0 386 1647.0 366Q1647.0 352 1654.0 338.5Q1661.0 325 1690.0 314L1750.0 290Q1807.0 268 1828.5 230.0Q1850.0 192 1850.0 147Q1850.0 115 1838.5 87.5Q1827.0 60 1807.0 39Q1787.0 18 1759.0 6.0Q1731.0 -6 1698.0 -6Q1636.0 -6 1594.0 33Q1573.0 52 1560.0 80.5Q1547.0 109 1546.0 147H1642.0Q1645.0 126 1656.5 108.0Q1668.0 90 1697.0 90Q1719.0 90 1736.5 104.5Q1754.0 119 1754.0 145Q1754.0 166 1743.0 181.0Q1732.0 196 1703.0 207L1654.0 225Q1606.0 243 1578.5 278.5Q1551.0 314 1551.0 365Q1551.0 397 1563.0 424.5Q1575.0 452 1596.0 472Q1616.0 492 1643.0 502.5Q1670.0 513 1701.0 513Q1732.0 513 1758.5 502.0Q1785.0 491 1804.0 471Q1823.0 451 1834.0 423.5Q1845.0 396 1845.0 365Z M1916.0 0V712H2018.0V458H2020.0Q2036.0 482 2058.5 497.5Q2081.0 513 2116.0 513Q2135.0 513 2154.0 506.5Q2173.0 500 2188.0 485Q2203.0 470 2212.0 446.5Q2221.0 423 2221.0 389V0H2119.0V351Q2119.0 379 2106.0 395.0Q2093.0 411 2069.0 411Q2040.0 411 2029.0 393.0Q2018.0 375 2018.0 341V0Z M2498.0 0V52H2496.0Q2476.0 24 2455.5 9.0Q2435.0 -6 2398.0 -6Q2380.0 -6 2361.5 -0.5Q2343.0 5 2326.0 20Q2309.0 34 2298.5 60.5Q2288.0 87 2288.0 129Q2288.0 172 2295.0 204.5Q2302.0 237 2321.0 259Q2339.0 280 2370.0 290.5Q2401.0 301 2449.0 301Q2454.0 301 2460.0 301.0Q2466.0 301 2471.0 300Q2476.0 299 2483.0 299.0Q2490.0 299 2498.0 298V351Q2498.0 377 2487.0 394.0Q2476.0 411 2447.0 411Q2427.0 411 2410.5 398.0Q2394.0 385 2389.0 360H2290.0Q2294.0 428 2336.0 470Q2356.0 490 2384.0 501.5Q2412.0 513 2447.0 513Q2479.0 513 2507.0 503.0Q2535.0 493 2556.0 473Q2576.0 453 2588.0 423.0Q2600.0 393 2600.0 353V0ZM2498.0 218Q2481.0 221 2470.0 221Q2437.0 221 2413.5 205.5Q2390.0 190 2390.0 149Q2390.0 120 2404.0 102.0Q2418.0 84 2443.0 84Q2469.0 84 2483.5 101.0Q2498.0 118 2498.0 149Z M2675.0 0V507H2777.0V453Q2808.0 481 2838.0 497.0Q2868.0 513 2912.0 513V405Q2897.0 411 2881.0 411Q2865.0 411 2846.5 405.5Q2828.0 400 2813.0 387Q2797.0 374 2787.0 353.0Q2777.0 332 2777.0 301V0Z M2953.0 -205V507H3055.0V461Q3074.0 483 3094.0 498.0Q3114.0 513 3152.0 513Q3215.0 513 3241.0 465Q3250.0 448 3254.0 423.0Q3258.0 398 3258.0 356V163Q3258.0 107 3255.0 82Q3249.0 32 3209.0 7Q3189.0 -6 3151.0 -6Q3121.0 -6 3097.5 7.5Q3074.0 21 3057.0 46H3055.0V-205ZM3156.0 342Q3156.0 373 3144.0 392.0Q3132.0 411 3106.0 411Q3083.0 411 3069.0 393.5Q3055.0 376 3055.0 348V151Q3055.0 127 3069.5 111.5Q3084.0 96 3106.0 96Q3135.0 96 3145.5 114.0Q3156.0 132 3156.0 156Z M3637.0 215H3435.0V146Q3435.0 122 3448.5 109.0Q3462.0 96 3485.0 96Q3514.0 96 3523.5 113.0Q3533.0 130 3535.0 147H3637.0Q3637.0 80 3596.0 39Q3576.0 18 3548.0 6.0Q3520.0 -6 3485.0 -6Q3437.0 -6 3403.5 14.0Q3370.0 34 3352.0 67Q3341.0 87 3337.0 113.0Q3333.0 139 3333.0 170V337Q3333.0 368 3337.0 394.0Q3341.0 420 3352.0 440Q3370.0 473 3403.5 493.0Q3437.0 513 3485.0 513Q3520.0 513 3548.5 501.0Q3577.0 489 3597.0 468Q3637.0 423 3637.0 355ZM3435.0 295H3535.0V353Q3535.0 382 3521.5 396.5Q3508.0 411 3485.0 411Q3462.0 411 3448.5 396.5Q3435.0 382 3435.0 353Z M3712.0 0V507H3814.0V458H3816.0Q3832.0 482 3854.5 497.5Q3877.0 513 3912.0 513Q3931.0 513 3950.0 506.5Q3969.0 500 3984.0 485Q3999.0 470 4008.0 446.5Q4017.0 423 4017.0 389V0H3915.0V351Q3915.0 379 3902.0 395.0Q3889.0 411 3865.0 411Q3836.0 411 3825.0 393.0Q3814.0 375 3814.0 341V0Z" transform="translate(23,0) scale(0.14045,-0.14045)" fill="#F4F8FC"/>
</g>
<text x="600.0" y="425.0" text-anchor="middle"
  font-family="-apple-system,BlinkMacSystemFont,'Segoe UI',Helvetica,Arial,sans-serif"
  font-size="22" font-weight="400" fill="#4D6E8A" letter-spacing="5">AST-BASED i18n STATIC ANALYSIS</text>
</svg>
